<svg xmlns="http://www.w3.org/2000/svg" width="400" height="225" viewBox="0 0 400 225">
  <rect width="400" height="225" fill="#E2E8F0" />
  <circle cx="100" cy="80" r="30" fill="#FCD34D" />
  <path d="M100 40 L100 20 M60 60 L45 45 M60 100 L45 115 M140 60 L155 45 M140 100 L155 115" stroke="#FCD34D" stroke-width="5" stroke-linecap="round" />
  <path d="M150 140 C150 110 200 110 200 140 C200 110 250 110 250 140 C250 110 300 110 300 140 L300 160 L150 160 Z" fill="#A0AEC0" />
  <path d="M180 180 L180 200 M220 180 L220 200 M260 180 L260 200" stroke="#718096" stroke-width="5" stroke-linecap="round" />
</svg>